<mxfile host="app.diagrams.net" modified="2023-10-30T08:32:06.691Z" agent="Mozilla/5.0 (Windows NT 10.0; Win64; x64) AppleWebKit/537.36 (KHTML, like Gecko) Chrome/118.0.0.0 Safari/537.36" etag="ydrQ8J0DQKu8T_q9M0pL" version="22.0.8" type="google">
  <diagram name="第 1 页" id="6gXRxVo1pWipA3owBK26">
    <mxGraphModel dx="1050" dy="557" grid="1" gridSize="10" guides="1" tooltips="1" connect="1" arrows="1" fold="1" page="1" pageScale="1" pageWidth="827" pageHeight="1169" math="0" shadow="0">
      <root>
        <mxCell id="0" />
        <mxCell id="1" parent="0" />
        <mxCell id="_E1IFLF687dVmH8MoPd_-1" value="&lt;div style=&quot;&quot;&gt;&lt;span style=&quot;background-color: initial;&quot;&gt;Stack&lt;/span&gt;&lt;/div&gt;" style="swimlane;fontStyle=0;childLayout=stackLayout;horizontal=1;startSize=40;horizontalStack=0;resizeParent=1;resizeParentMax=0;resizeLast=0;collapsible=1;marginBottom=0;whiteSpace=wrap;html=1;align=center;strokeColor=#990000;fillColor=#FFFFCC;" vertex="1" parent="1">
          <mxGeometry x="260" y="190" width="130" height="120" as="geometry" />
        </mxCell>
        <mxCell id="_E1IFLF687dVmH8MoPd_-2" value="size : int" style="text;strokeColor=#990000;fillColor=#FFFFCC;align=left;verticalAlign=middle;spacingLeft=4;spacingRight=4;overflow=hidden;points=[[0,0.5],[1,0.5]];portConstraint=eastwest;rotatable=0;whiteSpace=wrap;html=1;" vertex="1" parent="_E1IFLF687dVmH8MoPd_-1">
          <mxGeometry y="40" width="130" height="20" as="geometry" />
        </mxCell>
        <mxCell id="_E1IFLF687dVmH8MoPd_-3" value="Push(elem : T) : int&lt;br&gt;Pop() : int&lt;br&gt;GetTop() : const T&amp;amp;" style="text;strokeColor=#990000;fillColor=#FFFFCC;align=left;verticalAlign=middle;spacingLeft=4;spacingRight=4;overflow=hidden;points=[[0,0.5],[1,0.5]];portConstraint=eastwest;rotatable=0;whiteSpace=wrap;html=1;" vertex="1" parent="_E1IFLF687dVmH8MoPd_-1">
          <mxGeometry y="60" width="130" height="60" as="geometry" />
        </mxCell>
        <mxCell id="_E1IFLF687dVmH8MoPd_-4" value="T" style="whiteSpace=wrap;html=1;shadow=0;dashed=1;align=left;dashPattern=12 12;strokeColor=#000000;fillColor=#FFFFFF;" vertex="1" parent="1">
          <mxGeometry x="340" y="180" width="30" height="20" as="geometry" />
        </mxCell>
        <mxCell id="_E1IFLF687dVmH8MoPd_-5" value="&lt;b&gt;模版類&lt;/b&gt;" style="text;html=1;strokeColor=none;fillColor=none;align=center;verticalAlign=middle;whiteSpace=wrap;rounded=0;" vertex="1" parent="1">
          <mxGeometry x="295" y="310" width="60" height="30" as="geometry" />
        </mxCell>
        <mxCell id="_E1IFLF687dVmH8MoPd_-6" value="&lt;b&gt;模版參數&lt;/b&gt;" style="rounded=0;whiteSpace=wrap;html=1;" vertex="1" parent="1">
          <mxGeometry x="420" y="200" width="70" height="20" as="geometry" />
        </mxCell>
        <mxCell id="_E1IFLF687dVmH8MoPd_-7" value="" style="endArrow=classic;html=1;rounded=0;entryX=1;entryY=0.5;entryDx=0;entryDy=0;exitX=0;exitY=0.5;exitDx=0;exitDy=0;" edge="1" parent="1" source="_E1IFLF687dVmH8MoPd_-6" target="_E1IFLF687dVmH8MoPd_-4">
          <mxGeometry width="50" height="50" relative="1" as="geometry">
            <mxPoint x="320" y="310" as="sourcePoint" />
            <mxPoint x="370" y="260" as="targetPoint" />
            <Array as="points" />
          </mxGeometry>
        </mxCell>
      </root>
    </mxGraphModel>
  </diagram>
</mxfile>
